# xmcd
# 
# Track frame offsets:
#     150
#     15417
#     34603
#     51405
#     67684
#     85550
#     104522
#     119977
#     130701
#     148371
#     165484
#     180195
#     201453
#     216982
# 
# Disc length: 3092
# 
# Revision: 4
# Processed by: cddbd v1.5.2PL0 Copyright (c) Steve Scherf et al.
# Submitted via: fre:ac v1.0.31
# 
DISCID=c50c120e
DTITLE=Big Daddy Wilson Feat.Eric Bibb and Staffan Astner - Time
DYEAR=2015
DGENRE=Blues
TTITLE0=Time To Move
TTITLE1=Bullfrog
TTITLE2=She Loves Me
TTITLE3=Mississippi John
TTITLE4=Some Say
TTITLE5=Time
TTITLE6=Dead End Road
TTITLE7=Would Ya Look At That Car
TTITLE8=Like A Sunny Day
TTITLE9=New Zealand
TTITLE10=Miss Dorothy Lee
TTITLE11=Mamas Words
TTITLE12=We´re Ready
TTITLE13=Daisy
EXTD=YEAR: 2015
EXTT0=
EXTT1=
EXTT2=
EXTT3=
EXTT4=
EXTT5=
EXTT6=
EXTT7=
EXTT8=
EXTT9=
EXTT10=
EXTT11=
EXTT12=
EXTT13=
PLAYORDER=
